<svg width="1920" height="1080" viewBox="0 0 1920 1080" fill="none" xmlns="http://www.w3.org/2000/svg">
<rect width="1920" height="1080" rx="2" fill="white"/>
<ellipse cx="1125.99" cy="241.959" rx="45.6207" ry="45.9295" fill="#0C6A92"/>
<ellipse cx="798.09" cy="488.894" rx="34.1634" ry="34.9738" fill="#0C6A92"/>
<ellipse cx="1013.07" cy="491.964" rx="47.4955" ry="48.0363" fill="#0C6A92"/>
<ellipse cx="1013.28" cy="380.511" rx="43.9542" ry="44.4547" fill="#0C6A92"/>
<path d="M900.954 447.735C900.954 447.735 927.608 451.588 948.55 430.408C969.492 409.227 969.492 378.417 969.492 378.417L1011.38 424.629C1011.38 424.629 986.626 424.629 963.78 445.81C940.934 466.99 946.646 490.097 946.646 490.097L900.954 447.735Z" fill="#0C6A92"/>
<ellipse cx="901.205" cy="494.07" rx="45.6207" ry="45.9295" fill="#0C6A92"/>
<ellipse cx="798.09" cy="389.992" rx="34.1634" ry="34.9738" fill="#0C6A92"/>
<path d="M900.954 447.735C900.954 447.735 872.397 451.588 851.455 430.408C830.512 409.227 831.939 388.44 831.939 388.44L798.147 424.629C798.147 424.629 813.378 424.629 836.224 445.81C859.07 466.99 855.262 493.948 855.262 493.948L900.954 447.735Z" fill="#0C6A92"/>
<path d="M1102.76 440.033C1102.76 440.033 1083.72 441.959 1068.49 428.48C1053.26 415.002 1057.07 382.268 1057.07 382.268L996.146 426.555C996.146 426.555 1030.41 418.853 1053.26 434.257C1076.11 449.661 1076.61 470.895 1076.61 470.895L1102.76 440.033Z" fill="#0C6A92"/>
<ellipse cx="26.6641" cy="26.9678" rx="26.6641" ry="26.9678" transform="matrix(-1 0 0 1 1129.72 440.135)" fill="#0C6A92"/>
<ellipse cx="26.8725" cy="27.1785" rx="26.8725" ry="27.1785" transform="matrix(-1 0 0 1 1199 377.359)" fill="#0C6A92"/>
<path d="M1102.76 439.995C1102.76 439.995 1122.79 436.794 1133.78 426.721C1144.76 416.647 1145.26 402.543 1145.26 402.543L1174.2 431.758C1174.2 431.758 1152.56 430.246 1144.26 439.995C1135.95 449.743 1129.38 468.905 1129.38 468.905L1102.76 439.995Z" fill="#0C6A92"/>
<ellipse cx="908.441" cy="253.31" rx="38.1214" ry="38.5555" fill="#0C6A92"/>
<ellipse cx="1011.35" cy="237.929" rx="46.0373" ry="45.9295" fill="#0C6A92"/>
<ellipse cx="908.649" cy="345.801" rx="34.1634" ry="34.5525" fill="#0C6A92"/>
<ellipse cx="1116.34" cy="347.697" rx="36.0383" ry="36.4486" fill="#0C6A92"/>
<path d="M908.575 310.976C908.575 310.976 929.517 312.901 950.459 291.721C971.402 270.54 965.69 241.658 965.69 241.658L1011.38 284.019C1011.38 284.019 988.536 282.093 965.69 303.274C942.844 324.455 942.844 345.635 942.844 345.635L908.575 310.976Z" fill="#0C6A92"/>
<path d="M1118 311.459C1118 311.459 1097.05 310.015 1076.11 288.835C1055.17 267.654 1057.07 239.732 1057.07 239.732L1011.38 284.019C1011.38 284.019 1038.04 283.056 1060.88 304.237C1083.73 325.417 1080.3 346.432 1080.3 346.432L1118 311.459Z" fill="#0C6A92"/>
<ellipse cx="34.3717" cy="34.5525" rx="34.3717" ry="34.5525" transform="matrix(-1 0 0 1 855.32 214.754)" fill="#0C6A92"/>
<path d="M722 320.518C722 332.387 731.326 342.008 742.831 342.008C754.336 342.008 763.663 332.387 763.663 320.518C763.663 308.65 754.336 299.028 742.831 299.028C731.326 299.028 722 308.65 722 320.518Z" fill="#0C6A92"/>
<path d="M908.575 310.976C908.575 310.976 887.633 310.976 869.086 292.279C850.539 273.582 855.268 253.211 855.268 253.211L817.192 284.018C817.192 284.018 837.274 280.975 857.172 299.423C877.07 317.871 874.306 341.784 874.306 341.784L908.575 310.976Z" fill="#0C6A92"/>
<path d="M741.038 299.423C741.038 299.423 763.418 300.653 775.307 285.944C787.196 271.235 786.73 253.211 786.73 253.211L817.191 284.017C817.191 284.017 791.735 282.807 777.211 297.497C762.686 312.187 763.884 322.529 763.884 322.529L741.038 299.423Z" fill="#0C6A92"/>
<path d="M757.87 646C764.136 646 769.936 647.2 775.27 649.6C780.736 651.867 785.536 655.067 789.67 659.2C793.803 663.2 797.003 667.933 799.27 673.4C801.67 678.733 802.87 684.533 802.87 690.8V735.8H785.07V690.8C785.07 687.067 784.336 683.6 782.87 680.4C781.536 677.067 779.603 674.2 777.07 671.8C774.67 669.267 771.803 667.333 768.47 666C765.136 664.533 761.603 663.8 757.87 663.8C754.136 663.8 750.603 664.533 747.27 666C744.07 667.333 741.203 669.267 738.67 671.8C736.27 674.2 734.336 677.067 732.87 680.4C731.536 683.6 730.87 687.067 730.87 690.8V735.8H713.07V690.8C713.07 687.067 712.336 683.6 710.87 680.4C709.536 677.067 707.603 674.2 705.07 671.8C702.67 669.267 699.803 667.333 696.47 666C693.136 664.533 689.603 663.8 685.87 663.8C682.136 663.8 678.603 664.533 675.27 666C672.07 667.333 669.203 669.267 666.67 671.8C664.27 674.2 662.336 677.067 660.87 680.4C659.536 683.6 658.87 687.067 658.87 690.8V735.8H641.07V690.8C641.07 684.533 642.203 678.733 644.47 673.4C646.87 667.933 650.07 663.2 654.07 659.2C658.203 655.067 663.003 651.867 668.47 649.6C673.936 647.2 679.736 646 685.87 646C693.336 646 700.136 647.667 706.27 651C712.536 654.2 717.736 658.6 721.87 664.2C726.003 658.6 731.203 654.2 737.47 651C743.736 647.667 750.536 646 757.87 646ZM903.038 646.2V727C903.038 733.267 901.838 739.067 899.438 744.4C897.172 749.867 893.972 754.667 889.838 758.8C885.838 762.933 881.105 766.133 875.638 768.4C870.305 770.8 864.505 772 858.238 772H849.238V754.2H858.238C861.972 754.2 865.438 753.467 868.638 752C871.972 750.667 874.838 748.733 877.238 746.2C879.772 743.8 881.705 740.933 883.038 737.6C884.505 734.267 885.238 730.733 885.238 727V726.8C881.505 729.733 877.305 732 872.638 733.6C868.105 735.2 863.305 736 858.238 736C852.105 736 846.305 734.867 840.838 732.6C835.372 730.2 830.572 726.933 826.438 722.8C822.305 718.667 819.038 713.867 816.638 708.4C814.372 702.933 813.238 697.133 813.238 691V646.2H831.038V691C831.038 694.733 831.705 698.267 833.038 701.6C834.505 704.933 836.438 707.867 838.838 710.4C841.372 712.8 844.305 714.733 847.638 716.2C850.972 717.533 854.505 718.2 858.238 718.2C861.972 718.2 865.438 717.533 868.638 716.2C871.972 714.733 874.838 712.8 877.238 710.4C879.772 707.867 881.705 704.933 883.038 701.6C884.505 698.267 885.238 694.733 885.238 691V646.2H903.038ZM1074.94 646.2V691C1074.94 697.133 1073.74 702.933 1071.34 708.4C1069.07 713.867 1065.87 718.667 1061.74 722.8C1057.61 726.933 1052.81 730.2 1047.34 732.6C1042.01 734.867 1036.21 736 1029.94 736C1022.61 736 1015.81 734.4 1009.54 731.2C1003.27 727.867 998.075 723.4 993.941 717.8C989.808 723.4 984.608 727.867 978.341 731.2C972.208 734.4 965.408 736 957.941 736C951.808 736 946.008 734.867 940.541 732.6C935.075 730.2 930.275 726.933 926.141 722.8C922.008 718.667 918.741 713.867 916.341 708.4C914.075 702.933 912.941 697.133 912.941 691V646.2H930.941V691C930.941 694.733 931.608 698.267 932.941 701.6C934.408 704.933 936.341 707.867 938.741 710.4C941.275 712.8 944.141 714.733 947.341 716.2C950.675 717.533 954.208 718.2 957.941 718.2C961.675 718.2 965.208 717.533 968.541 716.2C971.875 714.733 974.741 712.8 977.141 710.4C979.675 707.867 981.608 704.933 982.941 701.6C984.408 698.267 985.141 694.733 985.141 691V646.2H1002.94V691C1002.94 694.733 1003.61 698.267 1004.94 701.6C1006.41 704.933 1008.34 707.867 1010.74 710.4C1013.27 712.8 1016.14 714.733 1019.34 716.2C1022.67 717.533 1026.21 718.2 1029.94 718.2C1033.67 718.2 1037.21 717.533 1040.54 716.2C1043.87 714.733 1046.74 712.8 1049.14 710.4C1051.67 707.867 1053.61 704.933 1054.94 701.6C1056.41 698.267 1057.14 694.733 1057.14 691V646.2H1074.94ZM1130.1 646C1136.37 646 1142.17 647.2 1147.5 649.6C1152.97 651.867 1157.7 655.067 1161.7 659.2C1165.83 663.2 1169.03 667.933 1171.3 673.4C1173.7 678.733 1174.9 684.533 1174.9 690.8V735.8H1130.1C1123.97 735.8 1118.17 734.667 1112.7 732.4C1107.23 730 1102.43 726.733 1098.3 722.6C1094.17 718.467 1090.9 713.667 1088.5 708.2C1086.23 702.733 1085.1 696.933 1085.1 690.8C1085.1 684.533 1086.23 678.733 1088.5 673.4C1090.9 667.933 1094.17 663.2 1098.3 659.2C1102.43 655.067 1107.23 651.867 1112.7 649.6C1118.17 647.2 1123.97 646 1130.1 646ZM1157.1 718V690.8C1157.1 687.067 1156.37 683.6 1154.9 680.4C1153.57 677.067 1151.63 674.2 1149.1 671.8C1146.7 669.267 1143.83 667.333 1140.5 666C1137.3 664.533 1133.83 663.8 1130.1 663.8C1126.37 663.8 1122.83 664.533 1119.5 666C1116.17 667.333 1113.23 669.267 1110.7 671.8C1108.3 674.2 1106.37 677.067 1104.9 680.4C1103.57 683.6 1102.9 687.067 1102.9 690.8C1102.9 694.533 1103.57 698.067 1104.9 701.4C1106.37 704.733 1108.3 707.667 1110.7 710.2C1113.23 712.6 1116.17 714.533 1119.5 716C1122.83 717.333 1126.37 718 1130.1 718H1157.1ZM1273.83 646.2V727C1273.83 733.267 1272.63 739.067 1270.23 744.4C1267.96 749.867 1264.76 754.667 1260.63 758.8C1256.63 762.933 1251.89 766.133 1246.43 768.4C1241.09 770.8 1235.29 772 1229.03 772H1220.03V754.2H1229.03C1232.76 754.2 1236.23 753.467 1239.43 752C1242.76 750.667 1245.63 748.733 1248.03 746.2C1250.56 743.8 1252.49 740.933 1253.83 737.6C1255.29 734.267 1256.03 730.733 1256.03 727V726.8C1252.29 729.733 1248.09 732 1243.43 733.6C1238.89 735.2 1234.09 736 1229.03 736C1222.89 736 1217.09 734.867 1211.63 732.6C1206.16 730.2 1201.36 726.933 1197.23 722.8C1193.09 718.667 1189.83 713.867 1187.43 708.4C1185.16 702.933 1184.03 697.133 1184.03 691V646.2H1201.83V691C1201.83 694.733 1202.49 698.267 1203.83 701.6C1205.29 704.933 1207.23 707.867 1209.63 710.4C1212.16 712.8 1215.09 714.733 1218.43 716.2C1221.76 717.533 1225.29 718.2 1229.03 718.2C1232.76 718.2 1236.23 717.533 1239.43 716.2C1242.76 714.733 1245.63 712.8 1248.03 710.4C1250.56 707.867 1252.49 704.933 1253.83 701.6C1255.29 698.267 1256.03 694.733 1256.03 691V646.2H1273.83Z" fill="#0C6A92"/>
</svg>
