<svg width="1920" height="1080" viewBox="0 0 1920 1080" fill="none" xmlns="http://www.w3.org/2000/svg">
<rect width="1920" height="1080" fill="#13242F"/>
<g clip-path="url(#clip0_531_663)">
<path d="M1073.39 532.494V532.803L1073.08 579.284L1052.43 571.75C1044.95 576.758 1035.95 579.676 1026.27 579.676C999.644 579.676 978.177 557.566 979.186 530.685C980.096 506.231 999.98 486.294 1024.4 485.354C1051.28 484.316 1073.38 505.824 1073.38 532.494H1073.39Z" fill="#2683C0"/>
<path d="M1014.37 528.833C1009.41 526.462 1004.73 526.742 1000.23 528.833V516.037C1000.23 513.442 1002.33 511.352 1004.91 511.352H1009.69C1012.28 511.352 1014.37 513.456 1014.37 516.037V528.833Z" fill="#1AFFFF"/>
<path d="M1039.12 528.833C1034.16 526.462 1029.48 526.742 1024.98 528.833V516.037C1024.98 513.442 1027.08 511.352 1029.66 511.352H1034.44C1037.03 511.352 1039.12 513.456 1039.12 516.037V528.833Z" fill="#1AFFFF"/>
<path d="M779.075 486.477V578.877H746.664V565.703C743.931 569.869 740.134 573.251 735.314 575.832C730.494 578.399 724.945 579.69 718.695 579.69C707.948 579.69 699.484 576.155 693.277 569.07C687.083 561.985 683.986 552.36 683.986 540.154V486.477H716.061V536.058C716.061 541.319 717.462 545.486 720.25 548.488C723.039 551.49 726.752 553.02 731.348 553.02C735.944 553.02 739.784 551.504 742.53 548.488C745.263 545.472 746.636 541.319 746.636 536.058V486.477H779.047H779.075Z" fill="#2683C0"/>
<path d="M840.323 489.114C844.933 486.589 850.356 485.326 856.605 485.326C863.948 485.326 870.604 487.262 876.587 491.092C882.556 494.937 887.278 500.436 890.725 507.563C894.172 514.704 895.91 523.038 895.91 532.592C895.91 542.147 894.186 550.522 890.725 557.706C887.278 564.903 882.556 570.417 876.587 574.261C870.604 578.105 863.948 580.027 856.605 580.027C850.356 580.027 844.947 578.764 840.407 576.239C835.853 573.714 832.266 570.318 829.631 566.039V623.014H797.389V486.477H829.631V499.328C832.153 495.035 835.713 491.654 840.323 489.114ZM858.329 518.507C855.092 515.167 851.112 513.498 846.404 513.498C841.696 513.498 837.716 515.196 834.48 518.605C831.243 522.014 829.631 526.672 829.631 532.592C829.631 538.513 831.257 543.353 834.48 546.762C837.702 550.172 841.682 551.869 846.404 551.869C851.126 551.869 855.092 550.144 858.329 546.678C861.566 543.227 863.177 538.513 863.177 532.592C863.177 526.672 861.552 521.86 858.329 518.507Z" fill="#2683C0"/>
<path d="M963.044 551.364V578.863H949.059C925.476 578.863 913.692 567.176 913.692 543.788V513.316H902.342V486.477H913.692V464.071H946.103V486.463H962.875V513.302H946.103V544.279C946.103 546.805 946.677 548.615 947.826 549.709C948.975 550.803 950.923 551.35 953.655 551.35H963.03L963.044 551.364Z" fill="#2683C0"/>
<path d="M1121.73 457V578.862H1089.49V457H1121.73Z" fill="#2683C0"/>
<path d="M1197.7 578.862L1172.21 540.982V578.862H1139.96V457H1172.21V522.715L1197.7 486.477H1236.36L1199.99 532.929L1237 578.876H1197.68L1197.7 578.862Z" fill="#2683C0"/>
</g>
<g clip-path="url(#clip1_531_663)">
<path d="M1073.39 532.494V532.803L1073.08 579.284L1052.43 571.75C1044.95 576.758 1035.95 579.676 1026.27 579.676C999.644 579.676 978.177 557.566 979.186 530.685C980.096 506.231 999.98 486.294 1024.4 485.354C1051.28 484.316 1073.38 505.824 1073.38 532.494H1073.39Z" fill="#2683C0"/>
<path d="M1014.37 528.833C1009.41 526.462 1004.73 526.742 1000.23 528.833V516.037C1000.23 513.442 1002.33 511.352 1004.91 511.352H1009.69C1012.28 511.352 1014.37 513.456 1014.37 516.037V528.833Z" fill="#1AFFFF"/>
<path d="M1039.12 528.833C1034.16 526.462 1029.48 526.742 1024.98 528.833V516.037C1024.98 513.442 1027.08 511.352 1029.66 511.352H1034.44C1037.03 511.352 1039.12 513.456 1039.12 516.037V528.833Z" fill="#1AFFFF"/>
<path d="M779.075 486.477V578.877H746.664V565.703C743.931 569.869 740.134 573.251 735.314 575.832C730.494 578.399 724.945 579.69 718.695 579.69C707.948 579.69 699.484 576.155 693.277 569.07C687.083 561.985 683.986 552.36 683.986 540.154V486.477H716.061V536.058C716.061 541.319 717.462 545.486 720.25 548.488C723.039 551.49 726.752 553.02 731.348 553.02C735.944 553.02 739.784 551.504 742.53 548.488C745.263 545.472 746.636 541.319 746.636 536.058V486.477H779.047H779.075Z" fill="#2683C0"/>
<path d="M840.323 489.114C844.933 486.589 850.356 485.326 856.605 485.326C863.948 485.326 870.604 487.262 876.587 491.092C882.556 494.937 887.278 500.436 890.725 507.563C894.172 514.704 895.91 523.038 895.91 532.592C895.91 542.147 894.186 550.522 890.725 557.706C887.278 564.903 882.556 570.417 876.587 574.261C870.604 578.105 863.948 580.027 856.605 580.027C850.356 580.027 844.947 578.764 840.407 576.239C835.853 573.714 832.266 570.318 829.631 566.039V623.014H797.389V486.477H829.631V499.328C832.153 495.035 835.713 491.654 840.323 489.114ZM858.329 518.507C855.092 515.167 851.112 513.498 846.404 513.498C841.696 513.498 837.716 515.196 834.48 518.605C831.243 522.014 829.631 526.672 829.631 532.592C829.631 538.513 831.257 543.353 834.48 546.762C837.702 550.172 841.682 551.869 846.404 551.869C851.126 551.869 855.092 550.144 858.329 546.678C861.566 543.227 863.177 538.513 863.177 532.592C863.177 526.672 861.552 521.86 858.329 518.507Z" fill="#2683C0"/>
<path d="M963.044 551.364V578.863H949.059C925.476 578.863 913.692 567.176 913.692 543.788V513.316H902.342V486.477H913.692V464.071H946.103V486.463H962.875V513.302H946.103V544.279C946.103 546.805 946.677 548.615 947.826 549.709C948.975 550.803 950.923 551.35 953.655 551.35H963.03L963.044 551.364Z" fill="#2683C0"/>
<path d="M1121.73 457V578.862H1089.49V457H1121.73Z" fill="#2683C0"/>
<path d="M1197.7 578.862L1172.21 540.982V578.862H1139.96V457H1172.21V522.715L1197.7 486.477H1236.36L1199.99 532.929L1237 578.876H1197.68L1197.7 578.862Z" fill="#2683C0"/>
</g>
<defs>
<clipPath id="clip0_531_663">
<rect width="553" height="166" fill="white" transform="translate(684 457)"/>
</clipPath>
<clipPath id="clip1_531_663">
<rect width="553" height="166" fill="white" transform="translate(684 457)"/>
</clipPath>
</defs>
</svg>
